<mxfile host="app.diagrams.net" modified="2023-07-04T13:11:42.503Z" agent="Mozilla/5.0 (Windows NT 10.0; Win64; x64) AppleWebKit/537.36 (KHTML, like Gecko) Chrome/114.0.0.0 Safari/537.36" etag="kh81Z16ARI8OaGzUmTj2" version="21.5.0" type="device">
  <diagram name="페이지-1" id="Nfmp4DNtUASi2372WT7r">
    <mxGraphModel dx="2501" dy="796" grid="1" gridSize="10" guides="1" tooltips="1" connect="1" arrows="1" fold="1" page="1" pageScale="1" pageWidth="827" pageHeight="1169" math="0" shadow="0">
      <root>
        <mxCell id="0" />
        <mxCell id="1" parent="0" />
        <mxCell id="DBasfhP5iilIwJPSEIWQ-9" style="edgeStyle=orthogonalEdgeStyle;rounded=0;orthogonalLoop=1;jettySize=auto;html=1;entryX=0;entryY=0.5;entryDx=0;entryDy=0;" edge="1" parent="1" source="DBasfhP5iilIwJPSEIWQ-1" target="DBasfhP5iilIwJPSEIWQ-2">
          <mxGeometry relative="1" as="geometry" />
        </mxCell>
        <mxCell id="DBasfhP5iilIwJPSEIWQ-1" value="Actor" style="shape=umlActor;verticalLabelPosition=bottom;verticalAlign=top;html=1;outlineConnect=0;" vertex="1" parent="1">
          <mxGeometry x="-200" y="345" width="30" height="60" as="geometry" />
        </mxCell>
        <mxCell id="DBasfhP5iilIwJPSEIWQ-10" style="edgeStyle=orthogonalEdgeStyle;rounded=0;orthogonalLoop=1;jettySize=auto;html=1;entryX=0;entryY=0.5;entryDx=0;entryDy=0;" edge="1" parent="1" source="DBasfhP5iilIwJPSEIWQ-2" target="DBasfhP5iilIwJPSEIWQ-5">
          <mxGeometry relative="1" as="geometry" />
        </mxCell>
        <mxCell id="DBasfhP5iilIwJPSEIWQ-11" style="edgeStyle=orthogonalEdgeStyle;rounded=0;orthogonalLoop=1;jettySize=auto;html=1;entryX=0;entryY=0.5;entryDx=0;entryDy=0;" edge="1" parent="1" source="DBasfhP5iilIwJPSEIWQ-2" target="DBasfhP5iilIwJPSEIWQ-4">
          <mxGeometry relative="1" as="geometry" />
        </mxCell>
        <mxCell id="DBasfhP5iilIwJPSEIWQ-2" value="글리스트" style="ellipse;whiteSpace=wrap;html=1;" vertex="1" parent="1">
          <mxGeometry x="-50" y="350" width="120" height="50" as="geometry" />
        </mxCell>
        <mxCell id="DBasfhP5iilIwJPSEIWQ-13" style="edgeStyle=orthogonalEdgeStyle;rounded=0;orthogonalLoop=1;jettySize=auto;html=1;entryX=0;entryY=0.5;entryDx=0;entryDy=0;" edge="1" parent="1" source="DBasfhP5iilIwJPSEIWQ-4" target="DBasfhP5iilIwJPSEIWQ-12">
          <mxGeometry relative="1" as="geometry" />
        </mxCell>
        <mxCell id="DBasfhP5iilIwJPSEIWQ-4" value="글보기" style="ellipse;whiteSpace=wrap;html=1;" vertex="1" parent="1">
          <mxGeometry x="140" y="420" width="120" height="50" as="geometry" />
        </mxCell>
        <mxCell id="DBasfhP5iilIwJPSEIWQ-5" value="글쓰기" style="ellipse;whiteSpace=wrap;html=1;" vertex="1" parent="1">
          <mxGeometry x="140" y="280" width="120" height="50" as="geometry" />
        </mxCell>
        <mxCell id="DBasfhP5iilIwJPSEIWQ-12" value="상세보기" style="ellipse;whiteSpace=wrap;html=1;" vertex="1" parent="1">
          <mxGeometry x="340" y="420" width="120" height="50" as="geometry" />
        </mxCell>
      </root>
    </mxGraphModel>
  </diagram>
</mxfile>
